<svg width="22" height="22" viewBox="0 0 22 22" fill="none" xmlns="http://www.w3.org/2000/svg">
<g id="&#240;&#159;&#166;&#134; emoji &#34;North-East facing airplane&#34;">
<path id="Vector" d="M2.5166 4.1565L5.40846 1.26465L6.11257 1.96877L3.22072 4.86062L2.5166 4.1565ZM7.56953 4.88374L10.4617 1.99259L11.1659 2.69671L8.27364 5.58785L7.56953 4.88374ZM17.4873 19.1286L20.3798 16.2374L21.0839 16.9419L18.1914 19.8331L17.4873 19.1286ZM16.765 14.0444L19.6576 11.1532L20.3617 11.8577L17.4688 14.7488L16.765 14.0444Z" fill="#A5A8BA"/>
<path id="Vector_2" d="M20.0094 21.2084L18.338 6.23708L16.0976 3.99671L1.12627 2.32532C0.415038 2.25419 0.557284 4.03227 1.3752 4.42344L12.6482 9.68654L17.9113 20.9595C18.3024 21.7774 20.0805 21.9197 20.0094 21.2084Z" fill="#9AA0FE"/>
<path id="Vector_3" d="M21.751 2.50224C22.5334 0.973094 21.3599 -0.200434 19.8307 0.581918C17.8748 1.57764 14.9944 3.81801 12.0783 6.69848C7.52645 11.2503 4.61042 15.7667 5.57058 16.7624C6.53074 17.7225 11.0826 14.8065 15.6345 10.2546C18.5149 7.37415 20.7553 4.45811 21.751 2.50224Z" fill="#FAFAFC"/>
<path id="Vector_4" d="M7.91859 21.0299L7.34961 15.7668L6.56726 14.9845L1.30416 14.4155C1.05523 14.3799 1.09079 15.02 1.37529 15.1623L5.32261 17.0115L7.1718 20.9588C7.31405 21.2433 7.95415 21.2788 7.91859 21.0299Z" fill="#9AA0FE"/>
<path id="Vector_5" d="M7.13597 16.0513C5.5357 17.6516 4.07768 18.754 3.86431 18.505C3.65095 18.2917 4.75335 16.7981 6.31805 15.1978C7.91832 13.5975 9.37634 12.4951 9.62527 12.7441C9.80308 12.9574 8.70067 14.451 7.13597 16.0513Z" fill="#A5A8BA"/>
<path id="Vector_6" d="M21.2173 3.07173C21.3951 2.43163 21.324 1.82708 20.9328 1.40034C20.5416 1.00917 19.9015 0.902483 19.297 1.11585L18.0879 1.86264C18.6924 1.64927 19.5815 1.96933 19.9726 2.3605C20.3994 2.78724 20.6839 3.64071 20.4705 4.24526L21.2173 3.07173Z" fill="#3E4347"/>
<path id="Vector_7" d="M19.0361 3.07004L21.0468 1.05762L21.2733 1.28379L19.2623 3.29657L19.0361 3.07004Z" fill="#FAFAFC"/>
</g>
</svg>
