<svg width="26" height="22" viewBox="0 0 26 22" fill="none" xmlns="http://www.w3.org/2000/svg">
<g id="&#240;&#159;&#166;&#134; emoji &#34;orange book&#34;">
<path id="Vector" d="M21.7225 12.2207L24.6845 15.1432L11.5332 21.4227C11.5332 21.4227 9.79544 22.2126 8.96608 20.9488C5.72761 15.8936 21.7225 12.2207 21.7225 12.2207Z" fill="#363A7E"/>
<path id="Vector_2" d="M11.2183 17.7501C11.2183 17.7501 8.69074 18.619 9.16466 20.3172C9.63858 22.0549 11.6528 20.9886 11.6528 20.9886L24.1327 15.183C24.1327 15.183 23.4218 13.3268 24.6856 12.1025L11.2183 17.7501Z" fill="#E8E9F0"/>
<path id="Vector_3" d="M13.3103 0.333496L25.2769 11.9841L11.1382 17.5132L2.05469 3.3745L13.3103 0.333496Z" fill="#6168E4"/>
<path id="Vector_4" d="M13.6647 2.97998L15.9554 5.42858L7.38526 8.50908L5.37109 5.38909L13.6647 2.97998Z" fill="white"/>
<path id="Vector_5" d="M24.0909 13.3652L15.7578 16.7617L23.9725 13.0098L24.0909 13.3652ZM23.9725 14.392L15.0864 18.0649L23.8145 13.9971L23.9725 14.392ZM24.0514 14.9449L12.7168 19.8816L23.8935 14.5895L24.0514 14.9449Z" fill="#4D5267"/>
<path id="Vector_6" d="M8.96601 20.9497C7.58374 18.0666 11.1382 17.5532 11.1382 17.5532L2.05464 3.37505C2.05464 3.37505 0.000976562 3.33556 0.000976562 5.46821C0.000976562 6.33707 0.395912 7.00846 0.395912 7.00846L8.96601 20.9497Z" fill="#9AA0FE"/>
</g>
</svg>
