<svg width="23" height="23" viewBox="0 0 23 23" fill="none" xmlns="http://www.w3.org/2000/svg">
<g id="&#240;&#159;&#166;&#134; emoji &#34;bug&#34;">
<g id="Group">
<path id="Vector" d="M3.94612 20.9815C4.5127 20.4149 4.28607 19.6972 3.90835 19.3195C3.53063 18.9418 2.81296 18.7152 2.24638 19.2818C1.6798 19.8483 1.45317 20.9815 1.86866 21.3592C2.24638 21.7747 3.37954 21.5481 3.94612 20.9815ZM2.6241 15.6179C3.19068 15.0513 2.96405 14.3336 2.58633 13.9559C2.20861 13.5782 1.49094 13.3516 0.924365 13.9181C0.357785 14.4847 0.131153 15.6179 0.546645 16.0334C0.924365 16.4111 2.05752 16.1845 2.6241 15.6179Z" fill="#FAFAFC"/>
<path id="Vector_2" d="M18.8662 20.9823C20.6038 20.9823 22.9834 20.5669 22.9834 18.7538C22.9834 16.7519 21.0193 14.8633 18.8662 14.8633V20.9823Z" fill="#6168E4"/>
<path id="Vector_3" d="M14.7115 17.3173C14.7115 20.7168 17.0912 21.019 18.8287 21.019C20.5662 21.019 22.3037 20.2258 22.3037 18.7904C22.3037 17.0907 20.5662 14.8999 18.8287 14.8999C17.1289 14.8999 14.7115 15.6176 14.7115 17.3173Z" fill="#9AA0FE"/>
<path id="Vector_4" d="M15.732 20.9811C21.7377 20.9811 21.7755 13.7666 15.6187 13.7666L15.732 20.9811Z" fill="#6168E4"/>
<path id="Vector_5" d="M11.991 16.6388C11.991 20.6426 14.1062 21.0203 15.7682 21.0203C21.2074 21.0203 21.0563 13.8059 15.6549 13.8059C13.9551 13.7681 11.991 14.6368 11.991 16.6388Z" fill="#9AA0FE"/>
<path id="Vector_6" d="M12.105 20.9812C18.564 20.9812 18.2996 13.4268 12.105 13.4268V20.9812Z" fill="#6168E4"/>
<path id="Vector_7" d="M7.72464 16.4107C7.72464 20.6034 10.1798 20.9812 12.1062 20.9812C17.432 20.9812 17.432 13.4268 12.1062 13.4268C10.2176 13.4268 7.72464 14.3333 7.72464 16.4107Z" fill="#9AA0FE"/>
<path id="Vector_8" d="M6.85491 20.981C14.9381 20.981 14.1827 12.2935 7.42149 12.2935L6.85491 20.981Z" fill="#6168E4"/>
<path id="Vector_9" d="M1.9455 16.2978C1.9455 20.4905 4.62731 21.0193 6.85586 21.0193C13.6548 21.0193 13.6548 12.1807 6.85586 12.1807C4.62731 12.1429 1.9455 14.1826 1.9455 16.2978Z" fill="#9AA0FE"/>
<path id="Vector_10" d="M2.05804 15.58C2.05804 15.58 3.41784 17.242 5.4953 17.5064C7.61053 17.7708 13.0497 16.2977 9.65022 11.5762L2.05804 15.58Z" fill="#6168E4"/>
<path id="Vector_11" d="M1.18925 13.6536C1.18925 15.8066 3.68221 16.7509 5.75967 16.7509C7.83713 16.7509 10.3301 15.8066 10.3301 13.6536C10.3301 11.5006 7.83713 8.93213 5.75967 8.93213C3.64443 8.93213 1.18925 11.5006 1.18925 13.6536Z" fill="#9AA0FE"/>
<path id="Vector_12" d="M11.6901 19.9241C10.8968 19.1309 10.1036 19.2442 9.68814 19.6597C9.31042 20.0374 9.15933 20.8684 9.95254 21.6616C10.7458 22.4548 12.1433 22.9081 12.5588 22.5303C12.9743 22.1148 12.4833 20.7173 11.6901 19.9241ZM10.8968 11.9164C10.1036 12.7096 10.2169 13.5028 10.6324 13.9183C11.0102 14.296 11.8411 14.4471 12.6344 13.6539C13.4276 12.8607 13.8808 11.4631 13.5031 11.0854C13.0876 10.6699 11.6901 11.1232 10.8968 11.9164ZM15.8827 20.1129C15.2028 19.433 14.523 19.5463 14.2208 19.8863C13.8808 20.2262 13.7675 20.9061 14.4474 21.5483C15.1273 22.2282 16.2982 22.6059 16.6382 22.2659C16.9404 21.9638 16.5626 20.755 15.8827 20.1129ZM19.2067 20.2262C18.6401 19.6597 18.0735 19.7352 17.7713 20.0374C17.5069 20.3018 17.3936 20.9061 17.9602 21.4727C18.5268 22.0393 19.5466 22.3792 19.811 22.0771C20.1132 21.8127 19.7733 20.7928 19.2067 20.2262Z" fill="#FAFAFC"/>
<path id="Vector_13" d="M13.0123 14.3337L13.39 14.7114L13.0123 15.0891L12.6724 14.7114L13.0123 14.3337ZM14.1455 16.6378L14.4854 17.0155L14.1455 17.3932L13.7678 17.0155L14.1455 16.6378ZM17.8471 14.7114L18.2249 15.0891L17.8471 15.4291L17.4694 15.0891L17.8471 14.7114ZM20.68 16.2978L21.02 16.6378L20.68 17.0155L20.3023 16.6378L20.68 16.2978ZM21.2844 17.1288L21.6621 17.5065L21.2844 17.8842L20.9067 17.5065L21.2844 17.1288ZM10.6705 16.0334L11.0482 16.4111L10.6705 16.7888L10.2927 16.4111L10.6705 16.0334ZM9.72616 17.2043L10.1039 17.5821L9.72616 17.922L9.34844 17.5821L9.72616 17.2043ZM2.96497 17.0155L3.34269 17.3932L2.96497 17.7331L2.62502 17.3932L2.96497 17.0155ZM3.22937 13.9937L3.60709 14.3337L3.22937 14.7114L2.88942 14.3337L3.22937 13.9937ZM8.51745 12.9361L8.89517 13.2761L8.51745 13.6538L8.1775 13.2761L8.51745 12.9361ZM14.4854 14.5225L15.2409 15.2402L14.4854 15.9956L13.7678 15.2402L14.4854 14.5225ZM2.5117 12.1807L3.22937 12.9361L2.5117 13.6538L1.79404 12.9361L2.5117 12.1807ZM18.2249 15.7312L18.9425 16.4867L18.2249 17.2043L17.4694 16.4867L18.2249 15.7312Z" fill="#6168E4"/>
<g id="Group_2">
<path id="Vector_14" d="M8.44151 3.11593L8.78146 3.07816C8.74369 2.36049 9.2725 1.45396 10.2168 1.18956L10.1413 0.849609C9.12141 1.15179 8.36597 2.13386 8.44151 3.11593Z" fill="#FAFAFC"/>
<path id="Vector_15" d="M9.53593 0.509256C9.23376 0.849204 9.27153 1.37801 9.61148 1.68019C9.95142 1.98236 10.4802 1.94459 10.7824 1.60464C11.0846 1.2647 11.0468 0.735888 10.7069 0.433712C10.3669 0.0937641 9.83811 0.131536 9.53593 0.509256ZM5.15438 2.92666L5.19215 2.58672C4.47449 2.51117 3.71905 1.75573 3.6435 0.811432L3.30355 0.849204C3.3791 1.86905 4.21008 2.81335 5.15438 2.92666Z" fill="#FAFAFC"/>
<path id="Vector_16" d="M2.81219 1.33994C3.0766 1.71766 3.6054 1.75543 3.98312 1.49103C4.36084 1.18885 4.39862 0.697818 4.13421 0.320098C3.86981 -0.0576217 3.341 -0.0953937 2.96328 0.16901C2.62333 0.433414 2.54779 0.962222 2.81219 1.33994Z" fill="#FAFAFC"/>
</g>
<path id="Vector_17" d="M2.701 10.4438C3.60753 13.2767 8.89561 13.4278 9.61328 11.577L2.701 10.4438Z" fill="#6168E4"/>
<path id="Vector_18" d="M1.37786 7.68581C1.189 11.6141 9.19667 14.2959 11.5385 9.64995C13.3138 6.09939 10.5187 2.39773 7.57247 2.05778C2.73766 1.4912 1.45341 5.79721 1.37786 7.68581Z" fill="#9AA0FE"/>
<g id="Group_3">
<path id="Vector_19" d="M4.36119 6.13804C4.36119 6.78017 4.70114 7.2712 5.11663 7.2712C5.53212 7.2712 5.87207 6.78017 5.87207 6.13804C5.87207 5.49592 5.53212 5.00488 5.11663 5.00488C4.70114 5.00488 4.36119 5.53369 4.36119 6.13804Z" fill="#1F1F26"/>
<path id="Vector_20" d="M9.61175 7.2712C9.19453 7.2712 8.85631 6.76387 8.85631 6.13804C8.85631 5.51222 9.19453 5.00488 9.61175 5.00488C10.029 5.00488 10.3672 5.51222 10.3672 6.13804C10.3672 6.76387 10.029 7.2712 9.61175 7.2712Z" fill="#1F1F26"/>
<path id="Vector_21" d="M7.38327 10.2929C8.2898 10.2929 9.08301 9.95295 9.08301 9.613C9.08301 9.57523 9.08301 9.53746 9.04523 9.49969C9.00746 9.46191 8.96969 9.46191 8.89415 9.46191C8.8186 9.46191 8.78083 9.49969 8.66751 9.53746C8.44088 9.613 8.02539 9.80186 7.34549 9.80186C6.6656 9.80186 6.25011 9.613 6.06125 9.53746C5.94793 9.49969 5.91016 9.46191 5.83461 9.46191C5.75907 9.46191 5.68353 9.49969 5.68353 9.613C5.68353 9.95295 6.47674 10.2929 7.38327 10.2929Z" fill="#1F1F26"/>
</g>
<g id="Group_4" opacity="0.7">
<path id="Vector_22" d="M3.45438 9.15911C2.78683 9.15911 2.24568 8.73633 2.24568 8.21481C2.24568 7.69329 2.78683 7.27051 3.45438 7.27051C4.12193 7.27051 4.66309 7.69329 4.66309 8.21481C4.66309 8.73633 4.12193 9.15911 3.45438 9.15911Z" fill="#FFB323"/>
<path id="Vector_23" d="M10.7445 8.85686C10.2021 8.85686 9.76242 8.55246 9.76242 8.17697C9.76242 7.80147 10.2021 7.49707 10.7445 7.49707C11.2869 7.49707 11.7266 7.80147 11.7266 8.17697C11.7266 8.55246 11.2869 8.85686 10.7445 8.85686Z" fill="#FFB323"/>
</g>
</g>
</g>
</svg>
