<svg width="24" height="25" viewBox="0 0 24 25" fill="none" xmlns="http://www.w3.org/2000/svg">
<g id="&#240;&#159;&#166;&#134; emoji &#34;classical building&#34;">
<path id="Vector" d="M0.000976562 23.9063H24.001V24.6663H0.000976562V23.9063ZM1.40098 22.4263H22.601V23.1863H1.40098V22.4263Z" fill="#6168E4"/>
<path id="Vector_2" d="M0.72168 23.1465H23.3217V23.9065H0.72168V23.1465ZM2.08168 21.6665H21.8817V22.4265H2.08168V21.6665Z" fill="#EBEEFF"/>
<path id="Vector_3" d="M1.12109 10.9868H22.8811V11.7468H1.12109V10.9868Z" fill="#9AA0FE"/>
<path id="Vector_4" d="M0.000976562 11.7061H24.001V12.4661H0.000976562V11.7061Z" fill="#EBEEFF"/>
<path id="Vector_5" d="M12.001 1.78662L0.000976562 8.34662L1.00098 9.86662L12.001 2.54662L23.001 9.86662L24.001 8.34662L12.001 1.78662Z" fill="#9AA0FE"/>
<g id="Group">
<path id="Vector_6" d="M12.001 0.666504L0.000976562 8.3465V9.5065L12.001 1.7865L24.001 9.5065V8.3465L12.001 0.666504Z" fill="#EBEEFF"/>
<path id="Vector_7" d="M12.001 2.54639L0.000976562 10.2264V10.9864H24.001V10.2264L12.001 2.54639Z" fill="#EBEEFF"/>
</g>
<path id="Vector_8" d="M12.002 3.6665L2.04199 10.2265H21.962L12.002 3.6665Z" fill="#6168E4"/>
<path id="Vector_9" d="M2.60156 13.1465H5.00156V20.9865H2.60156V13.1465Z" fill="#EBEEFF"/>
<path id="Vector_10" d="M2.32129 20.9868H5.32129V21.7068H2.32129V20.9868ZM2.32129 12.4668H5.32129V13.1468H2.32129V12.4668Z" fill="#9AA0FE"/>
<path id="Vector_11" d="M2.84082 13.4668H3.12082V20.6668H2.84082V13.4668ZM4.48082 13.4668H4.76082V20.6668H4.48082V13.4668ZM3.92082 13.4668H4.20082V20.6668H3.92082V13.4668ZM3.40082 13.4668H3.68082V20.6668H3.40082V13.4668Z" fill="white"/>
<path id="Vector_12" d="M8.08105 13.1465H10.4811V20.9865H8.08105V13.1465Z" fill="#EBEEFF"/>
<path id="Vector_13" d="M7.76172 20.9868H10.7617V21.6668H7.76172V20.9868ZM7.76172 12.4668H10.7617V13.1468H7.76172V12.4668Z" fill="#9AA0FE"/>
<path id="Vector_14" d="M8.32129 13.4668H8.60129V20.6668H8.32129V13.4668ZM9.96129 13.4668H10.2413V20.6668H9.96129V13.4668ZM9.40129 13.4668H9.68129V20.6668H9.40129V13.4668ZM8.84129 13.4668H9.12129V20.6668H8.84129V13.4668Z" fill="white"/>
<path id="Vector_15" d="M13.5195 13.1465H15.9195V20.9865H13.5195V13.1465Z" fill="#EBEEFF"/>
<path id="Vector_16" d="M13.2412 20.9868H16.2412V21.6668H13.2412V20.9868ZM13.2412 12.4668H16.2412V13.1468H13.2412V12.4668Z" fill="#9AA0FE"/>
<path id="Vector_17" d="M13.7617 13.4668H14.0417V20.6668H13.7617V13.4668ZM15.4017 13.4668H15.6817V20.6668H15.4017V13.4668ZM14.8817 13.4668H15.1617V20.6668H14.8817V13.4668ZM14.3217 13.4668H14.6017V20.6668H14.3217V13.4668Z" fill="white"/>
<path id="Vector_18" d="M19.001 13.1465H21.401V20.9865H19.001V13.1465Z" fill="#EBEEFF"/>
<path id="Vector_19" d="M18.7217 20.9868H21.7217V21.7068H18.7217V20.9868ZM18.7217 12.4668H21.7217V13.1468H18.7217V12.4668Z" fill="#9AA0FE"/>
<path id="Vector_20" d="M19.2412 13.4668H19.5212V20.6668H19.2412V13.4668ZM20.8812 13.4668H21.1612V20.6668H20.8812V13.4668ZM20.3212 13.4668H20.6012V20.6668H20.3212V13.4668ZM19.8012 13.4668H20.0812V20.6668H19.8012V13.4668Z" fill="white"/>
</g>
</svg>
