<svg width="22" height="22" viewBox="0 0 22 22" fill="none" xmlns="http://www.w3.org/2000/svg">
<g id="&#240;&#159;&#166;&#134; emoji &#34;family (man,woman,girl,boy)&#34;">
<path id="Vector" d="M5.66829 0.333008C2.21941 0.333008 0.334961 2.57301 0.334961 5.55967V12.1375H11.0016V5.55967C11.0016 1.15079 8.12163 1.2219 8.12163 1.2219C8.12163 1.2219 7.90829 0.333008 5.66829 0.333008Z" fill="#1F1F26"/>
<path id="Vector_2" d="M11.002 11.9954V21.6665H21.6686V11.9954C21.6686 9.93318 11.002 9.93318 11.002 11.9954Z" fill="#00499A"/>
<path id="Vector_3" d="M0.334961 11.9954V21.6665H11.0016V11.9954C11.0016 9.93318 0.334961 9.93318 0.334961 11.9954Z" fill="#9AA0FE"/>
<path id="Vector_4" d="M1.89941 8.0132C1.89941 8.0132 1.11719 7.79987 1.11719 6.62653C1.11719 5.70209 1.72163 5.52431 1.72163 5.52431C3.85496 5.52431 7.33941 2.75098 7.33941 2.75098C7.33941 2.75098 8.65496 5.20431 9.93496 5.52431C9.93496 5.52431 10.5394 5.63098 10.5394 6.62653C10.5394 7.79987 9.72163 8.0132 9.72163 8.0132C9.72163 9.79098 7.30385 11.5688 5.81052 11.5688C4.3883 11.5688 1.89941 9.79098 1.89941 8.0132Z" fill="#FFD2A8"/>
<g id="Group">
<path id="Vector_5" d="M3.92675 7.62255C4.35876 7.62255 4.70898 7.27234 4.70898 6.84033C4.70898 6.40832 4.35876 6.05811 3.92675 6.05811C3.49474 6.05811 3.14453 6.40832 3.14453 6.84033C3.14453 7.27234 3.49474 7.62255 3.92675 7.62255Z" fill="#1F1F26"/>
<path id="Vector_6" d="M7.7666 7.62255C8.19861 7.62255 8.54882 7.27234 8.54882 6.84033C8.54882 6.40832 8.19861 6.05811 7.7666 6.05811C7.33459 6.05811 6.98438 6.40832 6.98438 6.84033C6.98438 7.27234 7.33459 7.62255 7.7666 7.62255Z" fill="#1F1F26"/>
<path id="Vector_7" d="M7.12791 9.25791C6.31013 9.89791 5.38569 9.89791 4.56791 9.25791C4.46124 9.1868 4.39013 9.32902 4.46124 9.43569C4.71013 9.89791 5.20791 10.289 5.84791 10.289C6.48791 10.289 6.98569 9.89791 7.23458 9.43569C7.30569 9.32902 7.23458 9.1868 7.12791 9.25791Z" fill="#1F1F26"/>
</g>
<path id="Vector_8" d="M10.9668 5.77332L11.5001 6.76887H20.8157L21.2068 5.73776C21.2068 1.96887 20.3179 0.404428 16.1935 0.368873C11.9979 0.297762 10.9668 1.96887 10.9668 5.77332Z" fill="#1F1F26"/>
<path id="Vector_9" d="M20.8501 5.70211C20.8146 5.91544 20.779 6.12878 20.7079 6.23544C20.6012 6.44878 20.3879 6.55544 20.3879 6.55544C20.3879 6.55544 20.459 6.12878 20.4235 5.55989C20.1746 2.111 19.9968 3.74655 16.1924 3.74655C12.3879 3.74655 12.1746 2.07544 11.9612 5.52433C11.9257 6.12878 11.9968 6.51989 11.9968 6.51989C11.9968 6.51989 11.7835 6.41322 11.6768 6.19989C11.6057 6.09322 11.5701 5.87989 11.5346 5.66655C11.179 5.55989 10.7168 5.66655 10.7168 6.69766C10.7168 7.33766 10.9657 7.871 11.7479 7.94211C12.0324 10.111 14.9124 11.5332 16.2279 11.5332C17.5079 11.5332 20.4235 10.0754 20.7079 7.94211C21.4901 7.871 21.739 7.33766 21.739 6.69766C21.6679 5.70211 21.2057 5.631 20.8501 5.70211Z" fill="#FFD2A8"/>
<g id="Group_2">
<path id="Vector_10" d="M14.2002 7.62255C14.6322 7.62255 14.9824 7.27234 14.9824 6.84033C14.9824 6.40832 14.6322 6.05811 14.2002 6.05811C13.7682 6.05811 13.418 6.40832 13.418 6.84033C13.418 7.27234 13.7682 7.62255 14.2002 7.62255Z" fill="#1F1F26"/>
<path id="Vector_11" d="M18.1113 7.62255C18.5433 7.62255 18.8935 7.27234 18.8935 6.84033C18.8935 6.40832 18.5433 6.05811 18.1113 6.05811C17.6793 6.05811 17.3291 6.40832 17.3291 6.84033C17.3291 7.27234 17.6793 7.62255 18.1113 7.62255Z" fill="#1F1F26"/>
<path id="Vector_12" d="M17.4365 9.2584C16.6187 9.8984 15.6943 9.8984 14.8765 9.2584C14.7698 9.18729 14.6987 9.32951 14.7698 9.43618C15.0187 9.8984 15.5165 10.2895 16.1565 10.2895C16.7965 10.2895 17.2943 9.8984 17.5432 9.43618C17.6143 9.32951 17.5432 9.18729 17.4365 9.2584Z" fill="#1F1F26"/>
</g>
<path id="Vector_13" d="M19.8908 21.6663H11.002C11.002 18.6796 19.8908 18.6796 19.8908 21.6663Z" fill="#6168E4"/>
<path id="Vector_14" d="M15.4459 12.4214C13.0636 12.4214 11.5703 13.7725 11.5703 15.4436V16.5814C11.5703 17.8969 12.6014 17.8969 12.6014 17.8969H18.4325C18.4325 17.8969 19.3214 17.8969 19.3214 16.5814V15.4436C19.3214 13.7725 17.757 12.4214 15.4459 12.4214Z" fill="#1F1F26"/>
<path id="Vector_15" d="M11.9262 16.8666L12.0684 15.2666C12.0684 14.2355 13.6684 15.0532 15.4462 15.0532C17.224 15.0532 18.824 14.2355 18.824 15.2666L18.9662 16.8666C19.7484 16.8666 19.7484 18.111 18.9662 18.111C18.9662 19.6755 16.8684 20.5999 15.4462 20.5999C14.024 20.5999 11.9262 19.6755 11.9262 18.111C11.1795 18.111 11.1795 16.8666 11.9262 16.8666Z" fill="#FFD2A8"/>
<g id="Group_3">
<path id="Vector_16" d="M13.7396 17.9685C14.0931 17.9685 14.3796 17.6819 14.3796 17.3285C14.3796 16.975 14.0931 16.6885 13.7396 16.6885C13.3861 16.6885 13.0996 16.975 13.0996 17.3285C13.0996 17.6819 13.3861 17.9685 13.7396 17.9685Z" fill="#1F1F26"/>
<path id="Vector_17" d="M17.1537 17.9685C17.5071 17.9685 17.7937 17.6819 17.7937 17.3285C17.7937 16.975 17.5071 16.6885 17.1537 16.6885C16.8002 16.6885 16.5137 16.975 16.5137 17.3285C16.5137 17.6819 16.8002 17.9685 17.1537 17.9685Z" fill="#1F1F26"/>
<path id="Vector_18" d="M14.3446 18.9635C15.0557 19.4968 15.8735 19.4968 16.5846 18.9635C16.6557 18.8923 16.7624 18.999 16.6912 19.1057C16.4779 19.4968 16.0157 19.8168 15.4824 19.8168C14.9135 19.8168 14.4868 19.4612 14.2735 19.1057C14.1668 18.999 14.2379 18.8923 14.3446 18.9635Z" fill="#1F1F26"/>
</g>
<path id="Vector_19" d="M10.2899 17.9686H10.6099V15.942C10.6099 13.9864 9.04545 12.4575 6.48545 12.4575C4.03212 12.4575 2.36101 14.022 2.36101 15.942V17.9686H2.78767C2.25434 18.5731 1.82767 19.8886 2.28989 20.7064C2.46767 21.0264 4.38767 22.1997 4.56545 20.1375H8.51212C8.68989 22.1997 10.6099 21.0264 10.7877 20.7064C11.2499 19.8886 10.8232 18.5731 10.2899 17.9686Z" fill="#1F1F26"/>
<path id="Vector_20" d="M6.48564 13.062C4.28119 13.062 2.78786 14.1998 2.78786 15.622V16.0487C2.78786 14.6265 4.28119 13.4887 6.48564 13.4887C8.76119 13.4887 10.1834 14.6265 10.1834 16.0487V15.622C10.1834 14.1998 8.79675 13.062 6.48564 13.062ZM2.1123 21.6665H11.0012C11.0012 18.6798 2.1123 18.6798 2.1123 21.6665Z" fill="#FFB323"/>
<path id="Vector_21" d="M10.0417 18.3953C10.0417 18.3953 10.6817 18.5019 10.6817 17.7908C10.6817 17.2219 10.0417 17.2575 10.0417 17.2575V16.6175C10.0417 16.6175 5.24173 16.4042 4.1395 14.5908C4.42395 16.4042 2.96617 17.2219 2.96617 17.2219C2.96617 17.2219 2.32617 17.1508 2.32617 17.7553C2.32617 18.4664 2.96617 18.3597 2.96617 18.3597C2.96617 19.4264 4.85062 20.5642 6.59284 20.5642C8.15728 20.5997 10.0417 19.6397 10.0417 18.3953Z" fill="#FFD2A8"/>
<g id="Group_4">
<path id="Vector_22" d="M8.79562 17.3285C8.79562 17.684 8.51118 17.9685 8.15562 17.9685C7.80007 17.9685 7.51562 17.684 7.51562 17.3285C7.51562 16.9729 7.83562 16.6885 8.15562 16.6885C8.51118 16.6885 8.79562 16.9729 8.79562 17.3285Z" fill="#1F1F26"/>
<path id="Vector_23" d="M4.92027 17.9685C5.27374 17.9685 5.56027 17.6819 5.56027 17.3285C5.56027 16.975 5.27374 16.6885 4.92027 16.6885C4.56681 16.6885 4.28027 16.975 4.28027 17.3285C4.28027 17.6819 4.56681 17.9685 4.92027 17.9685Z" fill="#1F1F26"/>
<path id="Vector_24" d="M7.6582 18.9639C6.94709 19.4973 6.12931 19.4973 5.4182 18.9639C5.34709 18.8928 5.24043 18.9995 5.31154 19.1062C5.52487 19.4973 5.98709 19.8173 6.52043 19.8173C7.08931 19.8173 7.51598 19.4617 7.72931 19.1062C7.83598 18.9995 7.72931 18.8928 7.6582 18.9639Z" fill="#1F1F26"/>
</g>
</g>
</svg>
